<?xml version="1.0" encoding="UTF-8" standalone="no"?>
<svg
   id="katman_1"
   data-name="katman 1"
   version="1.1"
   viewBox="0 0 56.999999 58.631997"
   sodipodi:docname="FlutterFlow.svg"
   inkscape:version="1.4 (86a8ad7, 2024-10-11)"
   width="57"
   height="58.632"
   xmlns:inkscape="http://www.inkscape.org/namespaces/inkscape"
   xmlns:sodipodi="http://sodipodi.sourceforge.net/DTD/sodipodi-0.dtd"
   xmlns="http://www.w3.org/2000/svg"
   xmlns:svg="http://www.w3.org/2000/svg">
  <sodipodi:namedview
     id="namedview1"
     pagecolor="#ffffff"
     bordercolor="#000000"
     borderopacity="0.25"
     inkscape:showpageshadow="2"
     inkscape:pageopacity="0.0"
     inkscape:pagecheckerboard="0"
     inkscape:deskcolor="#d1d1d1"
     inkscape:zoom="3.8343982"
     inkscape:cx="49.812249"
     inkscape:cy="63.504098"
     inkscape:window-width="1920"
     inkscape:window-height="1009"
     inkscape:window-x="1912"
     inkscape:window-y="-8"
     inkscape:window-maximized="1"
     inkscape:current-layer="UI-Element-_logoMark" />
  <defs
     id="defs1">
    <style
       id="style1">
      .cls-1 {
        fill: #4b39ef;
      }

      .cls-1, .cls-2 {
        fill-rule: evenodd;
        stroke-width: 0px;
      }

      .cls-2 {
        fill: #1d1d1b;
      }
    </style>
  </defs>
  <g
     id="logo" />
  <g
     id="UI-Element-_logoMark"
     data-name="UI-Element-/logoMark"
     transform="matrix(0.4525,0,0,0.4525,356.98159,106.76269)"
     inkscape:groupmode="layer">
    <path
       id="logo_fill"
       data-name="logo fill"
       class="cls-1"
       d="m -673.8075,-235.38923 c 3.88,0 7.47,2.1 9.29,5.51 1.74,3.27 1.67,7.12 -0.19,10.32 l -0.06,0.11 -16.32,27.3 c -1.85,3.09 -5.18,5.01 -8.74,5.05 h -0.12 c 0,0 -18.64,0 -18.64,0 l 7.75,17.73 0.03,0.05 0.05,0.08 c 1.82,3.3 1.78,7.22 -0.11,10.46 l -0.06,0.11 -16.32,27.3 c -1.85,3.09 -5.18,5.01 -8.74,5.05 h -0.12 c 0,0 -22.87,0 -22.87,0 l -16.44,17.34 -0.03,0.03 c -1.55,1.57 -3.64,2.45 -5.82,2.45 -0.54,0 -1.09,-0.06 -1.63,-0.17 -2.66,-0.54 -4.87,-2.37 -5.93,-4.88 l -0.03,-0.07 -8.65,-19.86 -0.05,-0.08 -0.05,-0.08 c 0,0 -0.02,-0.03 -0.02,-0.04 -1.82,-3.3 -1.78,-7.22 0.11,-10.46 l 0.06,-0.11 15.83,-26.48 -11.66,-26.7 0.21,-0.11 v -0.02 c -0.5,-2.46 -0.1,-5.02 1.17,-7.26 l 0.07,-0.12 0.06,-0.11 16.32,-27.3 c 1.85,-3.09 5.18,-5.01 8.74,-5.06 h 82.92 z m -85.69,108.87 h -17.34 c 0,0 5.09,11.78 5.09,11.78 v 0.03 c 0.1,0.21 0.23,0.33 0.44,0.37 0.18,0.04 0.33,0 0.47,-0.13 l 0.02,-0.02 z m 49.56,-40.5 h -52.41 c -0.06,0 -0.12,0 -0.17,0 h -0.02 c 0,0 14.37,32.87 14.37,32.87 h 22.05 c 0.91,0 1.78,-0.49 2.28,-1.26 l 0.04,-0.06 16.34,-27.32 c 0.49,-0.81 0.54,-1.76 0.16,-2.61 -0.45,-0.98 -1.48,-1.62 -2.63,-1.62 z m -57.86,6.75 -12.97,21.86 c -0.52,0.87 -0.55,1.89 -0.08,2.79 l 0.05,0.09 0.03,0.04 0.05,0.09 0.1,0.15 0.12,0.15 0.11,0.13 0.02,0.02 0.07,0.08 0.07,0.06 c 0.41,0.37 0.91,0.6 1.47,0.65 h 0.12 c 0,0 0.07,0.01 0.07,0.01 h 0.09 c 0,0 22.01,0 22.01,0 l -11.33,-26.13 z m -3.41,-26.78 5.7,13.07 0.11,-0.04 c 0.98,-0.33 2.01,-0.51 3.05,-0.52 h 0.16 c 0,0 50.81,0 50.81,0 l -5.45,-12.5 h -54.37 z m 97.25,-40.72 h -52.6 l 14.38,32.88 h 22.04 c 0.91,0 1.78,-0.49 2.28,-1.27 l 0.04,-0.06 16.34,-27.32 c 0.49,-0.81 0.54,-1.76 0.16,-2.61 -0.44,-0.96 -1.44,-1.6 -2.56,-1.63 h -0.07 z m -60.65,0 h -21.92 c -0.9,0 -1.77,0.48 -2.27,1.26 l -0.04,0.06 -16.3,27.32 c -0.49,0.82 -0.54,1.76 -0.15,2.61 0.43,0.96 1.43,1.6 2.54,1.62 h 0.07 c 0,0 52.4,0 52.4,0 l -14.34,-32.88 z"
       inkscape:transform-center-x="0.52159422"
       inkscape:transform-center-y="-1.0431884" />
  </g>
</svg>
